<?xml version="1.0" standalone="no"?>
<!DOCTYPE svg PUBLIC "-//W3C//DTD SVG 20010904//EN"
 "http://www.w3.org/TR/2001/REC-SVG-20010904/DTD/svg10.dtd">
<svg version="1.0" xmlns="http://www.w3.org/2000/svg"
 width="530.000000pt" height="600.000000pt" viewBox="0 0 530.000000 600.000000"
 preserveAspectRatio="xMidYMid meet">

<g transform="translate(0.000000,600.000000) scale(0.100000,-0.100000)"
fill="#4F39F6" stroke="none">
<path d="M1985 5989 c-145 -24 -270 -92 -385 -208 -116 -118 -179 -243 -196
-391 l-6 -59 -72 -42 c-210 -125 -553 -367 -923 -653 l-223 -171 43 -8 c78
-15 402 -1 521 23 59 11 110 19 112 17 3 -2 -15 -38 -39 -79 -236 -398 -275
-866 -113 -1338 24 -69 47 -134 51 -145 4 -11 -15 1 -45 30 -215 205 -322 508
-291 824 13 124 55 303 95 400 14 35 24 66 21 69 -9 9 -149 -135 -211 -218
-120 -159 -244 -442 -288 -655 -8 -38 -20 -117 -27 -175 -50 -434 143 -936
536 -1400 90 -105 320 -333 440 -436 186 -158 463 -355 710 -504 115 -70 355
-200 368 -200 11 0 -89 198 -164 324 l-23 39 85 -62 c184 -134 341 -293 451
-455 83 -124 133 -229 184 -381 23 -72 45 -130 48 -130 3 0 54 36 112 80 721
543 1099 1341 1071 2263 -6 208 2 258 55 318 58 66 68 68 328 75 263 7 303 15
436 80 266 130 466 434 579 879 27 105 60 291 71 392 l6 65 -301 182 c-166
100 -326 197 -354 215 l-52 34 -12 101 c-22 180 -103 348 -225 469 l-54 53 17
67 c51 194 -2 395 -140 533 -210 210 -526 213 -746 8 l-60 -57 -74 18 c-99 25
-226 40 -337 40 -87 0 -274 -15 -320 -25 -15 -3 -37 8 -70 34 -173 137 -385
195 -589 160z m250 -271 c137 -30 280 -129 374 -258 l32 -45 88 -12 c48 -6
113 -20 144 -31 32 -10 57 -16 57 -12 0 15 -39 118 -59 158 -11 22 -21 44 -21
48 0 13 286 -6 382 -25 362 -73 731 -282 949 -536 66 -78 145 -227 155 -292
l6 -43 -58 24 c-91 37 -166 57 -158 43 4 -7 47 -68 96 -138 l88 -125 346 -204
c190 -112 353 -210 362 -217 14 -10 -34 -12 -255 -13 l-272 0 29 -71 c63 -153
159 -268 253 -304 46 -18 135 -18 179 0 15 6 12 -11 -20 -101 l-37 -109 -40
-2 c-96 -6 -206 -27 -288 -54 -135 -45 -255 -40 -462 21 -127 37 -311 19 -435
-42 l-64 -31 99 -17 c127 -22 160 -32 326 -96 75 -30 169 -58 210 -65 107 -17
261 -5 399 29 63 16 116 29 117 28 1 -1 -21 -27 -48 -58 -105 -120 -236 -180
-394 -180 -86 1 -131 10 -295 58 -77 23 -283 23 -368 0 -220 -59 -380 -194
-530 -446 l-21 -35 -26 59 c-67 151 -98 323 -93 509 3 111 2 117 -14 98 -26
-33 -74 -157 -109 -286 -18 -66 -34 -122 -36 -124 -6 -8 -92 80 -171 174 -277
330 -409 695 -383 1058 3 48 5 87 4 87 -2 0 -20 -35 -42 -77 -261 -521 -129
-1087 415 -1768 149 -186 255 -327 323 -428 l52 -77 108 112 c121 127 193 207
233 258 32 40 31 44 17 -91 -27 -274 -113 -535 -254 -774 -68 -117 -205 -300
-215 -288 -4 4 -24 53 -45 108 -190 501 -506 899 -1025 1295 -69 52 -96 68
-98 57 -4 -21 58 -205 99 -292 18 -38 35 -74 37 -80 9 -22 -75 65 -165 170
-222 257 -356 524 -404 803 -10 63 -19 121 -19 130 0 9 26 -22 58 -68 74 -109
214 -255 321 -335 47 -36 87 -63 89 -60 2 2 -15 35 -38 74 -200 343 -238 750
-107 1142 14 41 24 75 23 76 -2 2 -25 -13 -52 -32 -105 -75 -215 -201 -285
-327 l-29 -53 0 95 c0 219 78 487 197 679 56 90 184 226 269 287 33 24 100 62
148 85 l87 42 -58 31 c-84 45 -139 92 -188 161 -63 87 -88 169 -88 280 1 326
258 516 598 443z"/>
<path d="M2058 5464 c-104 -36 -168 -124 -168 -230 1 -98 52 -179 160 -250
l42 -28 26 35 c39 51 101 108 151 137 58 34 164 72 201 72 37 0 37 12 1 75
-35 61 -122 145 -182 175 -58 30 -165 36 -231 14z"/>
<path d="M3390 4715 c-89 -25 -177 -73 -238 -130 l-57 -54 55 -1 c30 -1 109
-7 175 -13 l119 -12 6 -30 c15 -72 63 -110 130 -103 l38 3 -5 -125 -5 -125 39
60 c55 82 120 152 187 200 51 37 55 43 50 70 -19 102 -110 207 -212 246 -75
28 -206 35 -282 14z"/>
</g>
</svg>
